<svg xmlns="http://www.w3.org/2000/svg" viewBox="0 0 260 50" fill="none">
  <g transform="translate(5, 0)">
    <path d="M20 4 C20 4 12 14 8 20 C4 26 2 28 2 28 C6 26 14 20 18 14 C22 8 20 4 20 4Z" fill="#E8E0D5"/>
    <path d="M20 4 C20 4 28 14 32 20 C36 26 38 28 38 28 C34 26 26 20 22 14 C18 8 20 4 20 4Z" fill="#E8E0D5"/>
    <path d="M20 46 C20 46 12 36 8 30 C4 24 2 22 2 22 C6 24 14 30 18 36 C22 42 20 46 20 46Z" fill="#E8E0D5"/>
    <path d="M20 46 C20 46 28 36 32 30 C36 24 38 22 38 22 C34 24 26 30 22 36 C18 42 20 46 20 46Z" fill="#E8E0D5"/>
    <rect x="4" y="23" width="32" height="4" rx="2" fill="#C4A882"/>
  </g>
  <text x="52" y="30" font-family="Inter, -apple-system, sans-serif" font-weight="700" font-size="24" fill="#E8E0D5">Harven</text>
  <text x="53" y="44" font-family="Inter, -apple-system, sans-serif" font-weight="600" font-size="9" letter-spacing="4" fill="#C4A882">FINANCE</text>
</svg>
